<mxfile host="app.diagrams.net" agent="Mozilla/5.0 (Macintosh; Intel Mac OS X 10_15_7) AppleWebKit/605.1.15 (KHTML, like Gecko) Version/18.0 Safari/605.1.15" version="24.7.7">
  <diagram name="Page-1" id="nZYVuWXNNLBaQthbwnCb">
    <mxGraphModel dx="1119" dy="732" grid="1" gridSize="10" guides="1" tooltips="1" connect="1" arrows="1" fold="1" page="1" pageScale="1" pageWidth="850" pageHeight="1100" math="0" shadow="0">
      <root>
        <mxCell id="0" />
        <mxCell id="1" parent="0" />
        <mxCell id="xUDvTT6HLBnkoV4SSh0O-22" value="" style="rounded=0;whiteSpace=wrap;html=1;fontFamily=IBM Plex Sans;fontSource=fonts%2FIBMPlexSans-Regular.woff;fontSize=14;fillColor=#d5e8d4;spacingBottom=-28;spacingTop=0;labelPosition=-100;verticalLabelPosition=top;align=center;verticalAlign=bottom;spacingLeft=9;spacing=0;expand=0;recursiveResize=0;spacingRight=0;container=0;collapsible=0;strokeColor=#82b366;strokeWidth=2;dashed=1;dashPattern=1 2;" vertex="1" parent="1">
          <mxGeometry x="275" y="275" width="20" height="50" as="geometry">
            <mxRectangle width="670" as="alternateBounds" />
          </mxGeometry>
        </mxCell>
        <mxCell id="xUDvTT6HLBnkoV4SSh0O-21" value="" style="rounded=0;whiteSpace=wrap;html=1;fontFamily=IBM Plex Sans;fontSource=fonts%2FIBMPlexSans-Regular.woff;fontSize=14;fillColor=#fff2cc;spacingBottom=-28;spacingTop=0;labelPosition=-100;verticalLabelPosition=top;align=center;verticalAlign=bottom;spacingLeft=9;spacing=0;expand=0;recursiveResize=0;spacingRight=0;container=0;collapsible=0;strokeColor=#d6b656;strokeWidth=2;dashed=1;dashPattern=1 2;" vertex="1" parent="1">
          <mxGeometry x="255" y="275" width="20" height="50" as="geometry">
            <mxRectangle width="670" as="alternateBounds" />
          </mxGeometry>
        </mxCell>
        <mxCell id="xUDvTT6HLBnkoV4SSh0O-19" value="" style="rounded=0;whiteSpace=wrap;html=1;fontFamily=IBM Plex Sans;fontSource=fonts%2FIBMPlexSans-Regular.woff;fontSize=14;fillColor=#dae8fc;spacingBottom=-28;spacingTop=0;labelPosition=-100;verticalLabelPosition=top;align=center;verticalAlign=bottom;spacingLeft=9;spacing=0;expand=0;recursiveResize=0;spacingRight=0;container=0;collapsible=0;strokeColor=#6c8ebf;strokeWidth=2;dashed=1;dashPattern=1 2;" vertex="1" parent="1">
          <mxGeometry x="200" y="275" width="30" height="50" as="geometry">
            <mxRectangle width="670" as="alternateBounds" />
          </mxGeometry>
        </mxCell>
        <mxCell id="xUDvTT6HLBnkoV4SSh0O-5" value="Instance&#xa;BX" style="shape=image;verticalLabelPosition=bottom;verticalAlign=top;imageAspect=0;aspect=fixed;image=data:image/svg+xml,PHN2ZyB4bWxuczp4bGluaz0iaHR0cDovL3d3dy53My5vcmcvMTk5OS94bGluayIgeG1sbnM9Imh0dHA6Ly93d3cudzMub3JnLzIwMDAvc3ZnIiB2ZXJzaW9uPSIxLjEiIHZpZXdCb3g9IjAgMCA0OCA0OCIgaGVpZ2h0PSI0OHB4IiB3aWR0aD0iNDhweCI+JiN4YTsgICAgPHRpdGxlPmluc3RhbmNlLS1ieDwvdGl0bGU+JiN4YTsgICAgPGcgZmlsbC1ydWxlPSJldmVub2RkIiBmaWxsPSJub25lIiBzdHJva2Utd2lkdGg9IjEiIHN0cm9rZT0ibm9uZSIgaWQ9IlYyLUljb25zIj4mI3hhOyAgICAgICAgPGcgaWQ9Imluc3RhbmNlLS1ieCI+JiN4YTsgICAgICAgICAgICA8ZyBmaWxsPSIjMTk4MDM4IiBpZD0iU2F0dGVsaXRlLXYyLUljb24tQ29weS0xNiI+JiN4YTsgICAgICAgICAgICAgICAgPHBvbHlnb24gcG9pbnRzPSIwIDQ4IDQ4IDQ4IDQ4IDAgMCAwIiBpZD0iRmlsbC00Ii8+JiN4YTsgICAgICAgICAgICA8L2c+JiN4YTsgICAgICAgICAgICA8ZyB0cmFuc2Zvcm09InRyYW5zbGF0ZSgxMiwgMTIpIj4mI3hhOyAgICAgICAgICAgICAgICA8cGF0aCBmaWxsLXJ1bGU9Im5vbnplcm8iIGZpbGw9IiNGRkZGRkYiIGlkPSJTaGFwZSIgZD0iTTksMy43NSBDOC45OTg2MzU5NywyLjUwNzkyNDc1IDcuOTkyMDc1MjUsMS41MDEzNjQwMyA2Ljc1LDEuNSBMMywxLjUgTDMsMTEuMjUgTDYuNzUsMTEuMjUgQzcuOTkyMDc1MjUsMTEuMjQ4NjM2IDguOTk4NjM1OTcsMTAuMjQyMDc1MiA5LDkgTDksNy44NzUgQzguOTk4MzM1MDksNy4zMTk2NDYxNiA4Ljc4OTc2Mjg5LDYuNzg0ODQ1NjMgOC40MTUsNi4zNzUgQzguNzg5Nzc1MzUsNS45NjUxNjIxMiA4Ljk5ODM0OTUxLDUuNDMwMzU2NTggOSw0Ljg3NSBMOSwzLjc1IFogTTQuNSwzIEw2Ljc1LDMgQzcuMTYzOTkwODcsMy4wMDA1MzcxNCA3LjQ5OTQ2Mjg2LDMuMzM2MDA5MTMgNy41LDMuNzUgTDcuNSw0LjkxMzQ3NSBDNy40OTgxNDg0Myw1LjEwODM1NzQ5IDcuNDE3MjY2OCw1LjI5NDE0MDQ4IDcuMjc1ODc4OTgsNS40MjgyNzUxMSBDNy4xMzQ0OTExNiw1LjU2MjQwOTczIDYuOTQ0NzA5OTgsNS42MzM0MDQ1NSA2Ljc1LDUuNjI1IEw0LjUsNS42MjUgTDQuNSwzIFogTTcuNSw5IEM3LjQ5OTYyNzg1LDkuNDE0MDU5MzEgNy4xNjQwNTkzMSw5Ljc0OTYyNzg1IDYuNzUsOS43NSBMNC41LDkuNzUgTDQuNSw3LjEyNSBMNi43NSw3LjEyNSBDNy4xNjQwNTkzMSw3LjEyNTM3MjE1IDcuNDk5NjI3ODUsNy40NjA5NDA2OSA3LjUsNy44NzUgTDcuNSw5IFoiLz4mI3hhOyAgICAgICAgICAgICAgICA8cG9seWdvbiBwb2ludHM9IjE2LjUgMy43NSAxNSAzLjc1IDEzLjUgNi42NzI3NSAxMiAzLjc1IDEwLjUgMy43NSAxMi42Nzg3NSA3LjUgMTAuNSAxMS4yNSAxMiAxMS4yNSAxMy41IDguNDAwNzUgMTUgMTEuMjUgMTYuNSAxMS4yNSAxNC4zMjM1IDcuNSIgZmlsbC1ydWxlPSJub256ZXJvIiBmaWxsPSIjRkZGRkZGIiBpZD0iUGF0aCIvPiYjeGE7ICAgICAgICAgICAgICAgIDxjaXJjbGUgcj0iMSIgY3k9IjIwLjI1IiBjeD0iNi43NSIgZmlsbC1ydWxlPSJub256ZXJvIiBmaWxsPSIjRkZGRkZGIiBpZD0iT3ZhbCIvPiYjeGE7ICAgICAgICAgICAgICAgIDxyZWN0IGhlaWdodD0iMS41IiB3aWR0aD0iMyIgeT0iMTMuNSIgeD0iMS41IiBmaWxsLXJ1bGU9Im5vbnplcm8iIGZpbGw9IiNGRkZGRkYiIGlkPSJSZWN0YW5nbGUiLz4mI3hhOyAgICAgICAgICAgICAgICA8cmVjdCBoZWlnaHQ9IjEuNSIgd2lkdGg9IjMiIHk9IjEzLjUiIHg9IjYiIGZpbGwtcnVsZT0ibm9uemVybyIgZmlsbD0iI0ZGRkZGRiIgaWQ9IlJlY3RhbmdsZSIvPiYjeGE7ICAgICAgICAgICAgICAgIDxyZWN0IGhlaWdodD0iMS41IiB3aWR0aD0iMyIgeT0iMTMuNSIgeD0iMTAuNSIgZmlsbC1ydWxlPSJub256ZXJvIiBmaWxsPSIjRkZGRkZGIiBpZD0iUmVjdGFuZ2xlIi8+JiN4YTsgICAgICAgICAgICAgICAgPHJlY3QgaGVpZ2h0PSIxLjUiIHdpZHRoPSIzIiB5PSIxMy41IiB4PSIxNSIgZmlsbC1ydWxlPSJub256ZXJvIiBmaWxsPSIjRkZGRkZGIiBpZD0iUmVjdGFuZ2xlIi8+JiN4YTsgICAgICAgICAgICAgICAgPHJlY3QgaGVpZ2h0PSIxLjUiIHdpZHRoPSIzIiB5PSIxMy41IiB4PSIxOS41IiBmaWxsLXJ1bGU9Im5vbnplcm8iIGZpbGw9IiNGRkZGRkYiIGlkPSJSZWN0YW5nbGUiLz4mI3hhOyAgICAgICAgICAgICAgICA8cGF0aCBmaWxsLXJ1bGU9Im5vbnplcm8iIGZpbGw9IiNGRkZGRkYiIGlkPSJTaGFwZSIgZD0iTTE5LjUsMjMuMjUgTDQuNSwyMy4yNSBDMy42NzE5MzI3MiwyMy4yNDkxMzE5IDMuMDAwODY4MSwyMi41NzgwNjczIDMsMjEuNzUgTDMsMTguNzUgQzMuMDAwODY4MSwxNy45MjE5MzI3IDMuNjcxOTMyNzIsMTcuMjUwODY4MSA0LjUsMTcuMjUgTDE5LjUsMTcuMjUgQzIwLjMyODA2NzMsMTcuMjUwODY4MSAyMC45OTkxMzE5LDE3LjkyMTkzMjcgMjEsMTguNzUgTDIxLDIxLjc1IEMyMC45OTkxMzE5LDIyLjU3ODA2NzMgMjAuMzI4MDY3MywyMy4yNDkxMzE5IDE5LjUsMjMuMjUgWiBNNC41LDE4Ljc1IEw0LjUsMjEuNzUgTDE5LjUsMjEuNzUgTDE5LjUsMTguNzUgTDQuNSwxOC43NSBaIi8+JiN4YTsgICAgICAgICAgICAgICAgPHJlY3QgaGVpZ2h0PSIyNCIgd2lkdGg9IjI0IiB5PSIwIiB4PSIwIiBpZD0iX1RyYW5zcGFyZW50X1JlY3RhbmdsZV8iLz4mI3hhOyAgICAgICAgICAgIDwvZz4mI3hhOyAgICAgICAgPC9nPiYjeGE7ICAgIDwvZz4mI3hhOzwvc3ZnPg==;fontFamily=IBM Plex Sans;fontSize=14;spacingTop=-7;labelPosition=center;align=center;" vertex="1" parent="1">
          <mxGeometry x="80" y="920" width="48" height="48" as="geometry" />
        </mxCell>
        <mxCell id="xUDvTT6HLBnkoV4SSh0O-6" value="" style="rounded=0;whiteSpace=wrap;html=1;fontFamily=IBM Plex Sans;fontSource=fonts%2FIBMPlexSans-Regular.woff;fontSize=14;spacingBottom=-28;spacingTop=0;labelPosition=-100;verticalLabelPosition=top;align=center;verticalAlign=bottom;spacingLeft=9;spacing=0;expand=0;recursiveResize=0;spacingRight=0;container=1;collapsible=0;strokeColor=#878d96;fillColor=none;" vertex="1" parent="1">
          <mxGeometry x="480" y="816" width="240" height="152" as="geometry">
            <mxRectangle width="670" as="alternateBounds" />
          </mxGeometry>
        </mxCell>
        <mxCell id="xUDvTT6HLBnkoV4SSh0O-7" value="" style="rounded=0;whiteSpace=wrap;html=1;strokeColor=none;fillColor=#878d96;" vertex="1" parent="xUDvTT6HLBnkoV4SSh0O-6">
          <mxGeometry width="4" height="48" as="geometry" />
        </mxCell>
        <mxCell id="xUDvTT6HLBnkoV4SSh0O-9" style="edgeStyle=orthogonalEdgeStyle;rounded=0;orthogonalLoop=1;jettySize=auto;html=1;exitX=0;exitY=0.5;exitDx=0;exitDy=0;entryX=1.009;entryY=0.22;entryDx=0;entryDy=0;entryPerimeter=0;fontFamily=IBM Plex Sans;fontSource=fonts%2FIBMPlexSans-Regular.woff;fontSize=14;startArrow=oval;startFill=1;strokeColor=#198038;" edge="1" parent="xUDvTT6HLBnkoV4SSh0O-6">
          <mxGeometry relative="1" as="geometry" />
        </mxCell>
        <mxCell id="xUDvTT6HLBnkoV4SSh0O-10" value="" style="shape=image;image=data:image/svg+xml,PD94bWwgdmVyc2lvbj0iMS4wIiBlbmNvZGluZz0iVVRGLTgiPz4KPHN2ZyB3aWR0aD0iMjNweCIgaGVpZ2h0PSIyOHB4IiB2aWV3Qm94PSIwIDAgMjMgMjgiIHZlcnNpb249IjEuMSIgeG1sbnM9Imh0dHA6Ly93d3cudzMub3JnLzIwMDAvc3ZnIiB4bWxuczp4bGluaz0iaHR0cDovL3d3dy53My5vcmcvMTk5OS94bGluayI+CiAgICA8IS0tIEdlbmVyYXRvcjogU2tldGNoIDUzICg3MjUyMCkgLSBodHRwczovL3NrZXRjaGFwcC5jb20gLS0+CiAgICA8dGl0bGU+UmVnaW9uIEJsYWNrPC90aXRsZT4KICAgIDxkZXNjPkNyZWF0ZWQgd2l0aCBTa2V0Y2guPC9kZXNjPgogICAgPGcgaWQ9IlBhZ2UtMSIgc3Ryb2tlPSJub25lIiBzdHJva2Utd2lkdGg9IjEiIGZpbGw9Im5vbmUiIGZpbGwtcnVsZT0iZXZlbm9kZCI+CiAgICAgICAgPGcgaWQ9IlJlZ2lvbi1CbGFjayIgdHJhbnNmb3JtPSJ0cmFuc2xhdGUoMC4xMjUwMDAsIDAuMDAwMDAwKSIgZmlsbD0iIzAwMDAwMCI+CiAgICAgICAgICAgIDxwYXRoIGQ9Ik0xMS4wMDAyLDggQzkuMzQzMiw4IDguMDAwMiw5LjM0MyA4LjAwMDIsMTEgQzguMDAwMiwxMi42NTcgOS4zNDMyLDE0IDExLjAwMDIsMTQgQzEyLjY1NzIsMTQgMTQuMDAwMiwxMi42NTcgMTQuMDAwMiwxMSBDMTMuOTk4Miw5LjM0NCAxMi42NTYyLDguMDAyIDExLjAwMDIsOCBNMTEuMDAwMiwxNiBDOC4yMzgyLDE2IDYuMDAwMiwxMy43NjEgNi4wMDAyLDExIEM2LjAwMDIsOC4yMzkgOC4yMzgyLDYgMTEuMDAwMiw2IEMxMy43NjEyLDYgMTYuMDAwMiw4LjIzOSAxNi4wMDAyLDExIEMxNS45OTcyLDEzLjc2IDEzLjc2MDIsMTUuOTk3IDExLjAwMDIsMTYiIGlkPSJGaWxsLTEiPjwvcGF0aD4KICAgICAgICAgICAgPGcgaWQ9Ikdyb3VwLTUiPgogICAgICAgICAgICAgICAgPHBhdGggZD0iTTMuODEyNywxNi4zOTUgQzMuODEzNywxNi4zOTUgNC4wNDU3LDE2LjcwMyA0LjA5ODcsMTYuNzcgTDEwLjk5OTcsMjQuOTA4IEwxNy45MTA3LDE2Ljc1OCBDMTcuOTU0NywxNi43MDMgMTguMTg4NywxNi4zOTMgMTguMTg4NywxNi4zOTIgQzE5LjM2NjcsMTQuODQxIDIwLjAwMTcsMTIuOTQ3IDE5Ljk5OTcsMTEgQzE5Ljk5OTcsNi4wMjkgMTUuOTcwNywyIDEwLjk5OTcsMiBDNi4wMjk3LDIgMi4wMDA3LDYuMDI5IDIuMDAwNywxMSBDMS45OTc3LDEyLjk0OCAyLjYzNDcsMTQuODQzIDMuODEyNywxNi4zOTUgTDMuODEyNywxNi4zOTUgWiBNMTAuOTk5NywyOCBMMi41NjQ3LDE4LjA1MSBDMi41MTY3LDE3Ljk5NCAyLjIxNjcsMTcuNiAyLjIxNjcsMTcuNiBDMC43NzQ3LDE1LjcwMiAtMC4wMDMzLDEzLjM4MyAtMC4wMDAzLDExIEMtMC4wMDAzLDQuOTI1IDQuOTI0NywwIDEwLjk5OTcsMCBDMTcuMDc1NywwIDIxLjk5OTcsNC45MjUgMjEuOTk5NywxMSBDMjIuMDAyNywxMy4zODIgMjEuMjI1NywxNS43IDE5Ljc4NTcsMTcuNTk3IEwxOS43ODM3LDE3LjYgQzE5Ljc4MzcsMTcuNiAxOS40ODM3LDE3Ljk5NCAxOS40Mzg3LDE4LjA0NyBMMTAuOTk5NywyOCBaIiBpZD0iRmlsbC0zIj48L3BhdGg+CiAgICAgICAgICAgIDwvZz4KICAgICAgICA8L2c+CiAgICA8L2c+Cjwvc3ZnPg==;" vertex="1" parent="xUDvTT6HLBnkoV4SSh0O-6">
          <mxGeometry x="19.66" y="8" width="24" height="24" as="geometry" />
        </mxCell>
        <mxCell id="xUDvTT6HLBnkoV4SSh0O-12" value="&lt;font style=&quot;font-size: 28px;&quot;&gt;cx3dc-2x5 =&amp;nbsp;&lt;/font&gt;" style="text;html=1;align=center;verticalAlign=middle;resizable=0;points=[];autosize=1;strokeColor=none;fillColor=none;" vertex="1" parent="1">
          <mxGeometry x="30" y="275" width="180" height="50" as="geometry" />
        </mxCell>
        <mxCell id="xUDvTT6HLBnkoV4SSh0O-15" value="" style="rounded=0;whiteSpace=wrap;html=1;fontFamily=IBM Plex Sans;fontSource=fonts%2FIBMPlexSans-Regular.woff;fontSize=14;fillColor=#f8cecc;spacingBottom=-28;spacingTop=0;labelPosition=-100;verticalLabelPosition=top;align=center;verticalAlign=bottom;spacingLeft=9;spacing=0;expand=0;recursiveResize=0;spacingRight=0;container=0;collapsible=0;strokeColor=#b85450;strokeWidth=2;dashed=1;dashPattern=1 2;" vertex="1" parent="1">
          <mxGeometry x="230" y="275" width="25" height="50" as="geometry">
            <mxRectangle width="670" as="alternateBounds" />
          </mxGeometry>
        </mxCell>
        <mxCell id="xUDvTT6HLBnkoV4SSh0O-20" value="&lt;font style=&quot;font-size: 26px;&quot;&gt;cx 3 d c - vCPU/RAM&lt;/font&gt;" style="text;html=1;align=center;verticalAlign=middle;resizable=0;points=[];autosize=1;strokeColor=none;fillColor=none;" vertex="1" parent="1">
          <mxGeometry x="190" y="280" width="270" height="40" as="geometry" />
        </mxCell>
      </root>
    </mxGraphModel>
  </diagram>
</mxfile>
